<mxfile host="Electron" agent="Mozilla/5.0 (Macintosh; Intel Mac OS X 10_15_7) AppleWebKit/537.36 (KHTML, like Gecko) draw.io/26.2.2 Chrome/134.0.6998.178 Electron/35.1.2 Safari/537.36" version="26.2.2">
  <diagram id="C5RBs43oDa-KdzZeNtuy" name="Page-1">
    <mxGraphModel dx="1935" dy="1004" grid="1" gridSize="10" guides="1" tooltips="1" connect="1" arrows="1" fold="1" page="1" pageScale="1" pageWidth="827" pageHeight="1169" math="0" shadow="0">
      <root>
        <mxCell id="WIyWlLk6GJQsqaUBKTNV-0" />
        <mxCell id="WIyWlLk6GJQsqaUBKTNV-1" parent="WIyWlLk6GJQsqaUBKTNV-0" />
        <mxCell id="WIyWlLk6GJQsqaUBKTNV-2" value="" style="rounded=0;html=1;jettySize=auto;orthogonalLoop=1;fontSize=11;endArrow=block;endFill=0;endSize=8;strokeWidth=1;shadow=0;labelBackgroundColor=none;edgeStyle=orthogonalEdgeStyle;" parent="WIyWlLk6GJQsqaUBKTNV-1" source="WIyWlLk6GJQsqaUBKTNV-3" target="WIyWlLk6GJQsqaUBKTNV-6" edge="1">
          <mxGeometry relative="1" as="geometry" />
        </mxCell>
        <mxCell id="WIyWlLk6GJQsqaUBKTNV-3" value="User submits recommendation request" style="rounded=1;whiteSpace=wrap;html=1;fontSize=12;glass=0;strokeWidth=1;shadow=0;" parent="WIyWlLk6GJQsqaUBKTNV-1" vertex="1">
          <mxGeometry x="341" y="70" width="146" height="50" as="geometry" />
        </mxCell>
        <mxCell id="54ExOtCVc-JKJDqyDyc6-1" value="" style="edgeStyle=orthogonalEdgeStyle;rounded=0;orthogonalLoop=1;jettySize=auto;html=1;" edge="1" parent="WIyWlLk6GJQsqaUBKTNV-1" source="WIyWlLk6GJQsqaUBKTNV-6" target="54ExOtCVc-JKJDqyDyc6-0">
          <mxGeometry relative="1" as="geometry" />
        </mxCell>
        <mxCell id="54ExOtCVc-JKJDqyDyc6-2" value="Anime" style="edgeLabel;html=1;align=center;verticalAlign=middle;resizable=0;points=[];" vertex="1" connectable="0" parent="54ExOtCVc-JKJDqyDyc6-1">
          <mxGeometry x="-0.2955" y="1" relative="1" as="geometry">
            <mxPoint y="-9" as="offset" />
          </mxGeometry>
        </mxCell>
        <mxCell id="54ExOtCVc-JKJDqyDyc6-4" value="" style="edgeStyle=orthogonalEdgeStyle;rounded=0;orthogonalLoop=1;jettySize=auto;html=1;" edge="1" parent="WIyWlLk6GJQsqaUBKTNV-1" source="WIyWlLk6GJQsqaUBKTNV-6" target="54ExOtCVc-JKJDqyDyc6-3">
          <mxGeometry relative="1" as="geometry" />
        </mxCell>
        <mxCell id="54ExOtCVc-JKJDqyDyc6-5" value="User" style="edgeLabel;html=1;align=center;verticalAlign=middle;resizable=0;points=[];" vertex="1" connectable="0" parent="54ExOtCVc-JKJDqyDyc6-4">
          <mxGeometry y="3" relative="1" as="geometry">
            <mxPoint y="-13" as="offset" />
          </mxGeometry>
        </mxCell>
        <mxCell id="54ExOtCVc-JKJDqyDyc6-7" value="" style="edgeStyle=orthogonalEdgeStyle;rounded=0;orthogonalLoop=1;jettySize=auto;html=1;" edge="1" parent="WIyWlLk6GJQsqaUBKTNV-1" source="WIyWlLk6GJQsqaUBKTNV-6" target="54ExOtCVc-JKJDqyDyc6-6">
          <mxGeometry relative="1" as="geometry" />
        </mxCell>
        <mxCell id="54ExOtCVc-JKJDqyDyc6-8" value="Natural Language" style="edgeLabel;html=1;align=center;verticalAlign=middle;resizable=0;points=[];" vertex="1" connectable="0" parent="54ExOtCVc-JKJDqyDyc6-7">
          <mxGeometry x="-0.3" y="1" relative="1" as="geometry">
            <mxPoint as="offset" />
          </mxGeometry>
        </mxCell>
        <mxCell id="WIyWlLk6GJQsqaUBKTNV-6" value="Which mode was used?" style="rhombus;whiteSpace=wrap;html=1;shadow=0;fontFamily=Helvetica;fontSize=12;align=center;strokeWidth=1;spacing=6;spacingTop=-4;" parent="WIyWlLk6GJQsqaUBKTNV-1" vertex="1">
          <mxGeometry x="346" y="150" width="136" height="100" as="geometry" />
        </mxCell>
        <mxCell id="54ExOtCVc-JKJDqyDyc6-24" value="" style="edgeStyle=orthogonalEdgeStyle;rounded=0;orthogonalLoop=1;jettySize=auto;html=1;" edge="1" parent="WIyWlLk6GJQsqaUBKTNV-1" source="54ExOtCVc-JKJDqyDyc6-0" target="54ExOtCVc-JKJDqyDyc6-23">
          <mxGeometry relative="1" as="geometry" />
        </mxCell>
        <mxCell id="54ExOtCVc-JKJDqyDyc6-0" value="Ask user to enter anime they want recommendations for" style="whiteSpace=wrap;html=1;shadow=0;strokeWidth=1;spacing=6;spacingTop=-4;" vertex="1" parent="WIyWlLk6GJQsqaUBKTNV-1">
          <mxGeometry x="570" y="170" width="120" height="60" as="geometry" />
        </mxCell>
        <mxCell id="54ExOtCVc-JKJDqyDyc6-10" value="" style="edgeStyle=orthogonalEdgeStyle;rounded=0;orthogonalLoop=1;jettySize=auto;html=1;" edge="1" parent="WIyWlLk6GJQsqaUBKTNV-1" source="54ExOtCVc-JKJDqyDyc6-3" target="54ExOtCVc-JKJDqyDyc6-9">
          <mxGeometry relative="1" as="geometry" />
        </mxCell>
        <mxCell id="54ExOtCVc-JKJDqyDyc6-3" value="Pull users anime list" style="whiteSpace=wrap;html=1;shadow=0;strokeWidth=1;spacing=6;spacingTop=-4;" vertex="1" parent="WIyWlLk6GJQsqaUBKTNV-1">
          <mxGeometry x="138" y="170" width="120" height="60" as="geometry" />
        </mxCell>
        <mxCell id="54ExOtCVc-JKJDqyDyc6-22" value="" style="edgeStyle=orthogonalEdgeStyle;rounded=0;orthogonalLoop=1;jettySize=auto;html=1;" edge="1" parent="WIyWlLk6GJQsqaUBKTNV-1" source="54ExOtCVc-JKJDqyDyc6-6" target="54ExOtCVc-JKJDqyDyc6-21">
          <mxGeometry relative="1" as="geometry" />
        </mxCell>
        <mxCell id="54ExOtCVc-JKJDqyDyc6-6" value="Ask user to provide a description of the kind of anime they would like to watch" style="whiteSpace=wrap;html=1;shadow=0;strokeWidth=1;spacing=6;spacingTop=-4;" vertex="1" parent="WIyWlLk6GJQsqaUBKTNV-1">
          <mxGeometry x="354" y="350" width="120" height="60" as="geometry" />
        </mxCell>
        <mxCell id="54ExOtCVc-JKJDqyDyc6-12" value="" style="edgeStyle=orthogonalEdgeStyle;rounded=0;orthogonalLoop=1;jettySize=auto;html=1;" edge="1" parent="WIyWlLk6GJQsqaUBKTNV-1" source="54ExOtCVc-JKJDqyDyc6-9" target="54ExOtCVc-JKJDqyDyc6-11">
          <mxGeometry relative="1" as="geometry" />
        </mxCell>
        <mxCell id="54ExOtCVc-JKJDqyDyc6-13" value="Yes" style="edgeLabel;html=1;align=center;verticalAlign=middle;resizable=0;points=[];" vertex="1" connectable="0" parent="54ExOtCVc-JKJDqyDyc6-12">
          <mxGeometry x="-0.1333" y="-1" relative="1" as="geometry">
            <mxPoint y="-9" as="offset" />
          </mxGeometry>
        </mxCell>
        <mxCell id="54ExOtCVc-JKJDqyDyc6-15" value="" style="edgeStyle=orthogonalEdgeStyle;rounded=0;orthogonalLoop=1;jettySize=auto;html=1;" edge="1" parent="WIyWlLk6GJQsqaUBKTNV-1" source="54ExOtCVc-JKJDqyDyc6-9" target="54ExOtCVc-JKJDqyDyc6-14">
          <mxGeometry relative="1" as="geometry" />
        </mxCell>
        <mxCell id="54ExOtCVc-JKJDqyDyc6-16" value="No" style="edgeLabel;html=1;align=center;verticalAlign=middle;resizable=0;points=[];" vertex="1" connectable="0" parent="54ExOtCVc-JKJDqyDyc6-15">
          <mxGeometry x="-0.0667" y="2" relative="1" as="geometry">
            <mxPoint x="10" as="offset" />
          </mxGeometry>
        </mxCell>
        <mxCell id="54ExOtCVc-JKJDqyDyc6-9" value="List empty?" style="rhombus;whiteSpace=wrap;html=1;shadow=0;strokeWidth=1;spacing=6;spacingTop=-4;" vertex="1" parent="WIyWlLk6GJQsqaUBKTNV-1">
          <mxGeometry x="158" y="300" width="80" height="80" as="geometry" />
        </mxCell>
        <mxCell id="54ExOtCVc-JKJDqyDyc6-11" value="Return error" style="whiteSpace=wrap;html=1;shadow=0;strokeWidth=1;spacing=6;spacingTop=-4;" vertex="1" parent="WIyWlLk6GJQsqaUBKTNV-1">
          <mxGeometry x="-22" y="310" width="120" height="60" as="geometry" />
        </mxCell>
        <mxCell id="54ExOtCVc-JKJDqyDyc6-26" style="edgeStyle=orthogonalEdgeStyle;rounded=0;orthogonalLoop=1;jettySize=auto;html=1;entryX=0.5;entryY=0;entryDx=0;entryDy=0;" edge="1" parent="WIyWlLk6GJQsqaUBKTNV-1" source="54ExOtCVc-JKJDqyDyc6-14" target="54ExOtCVc-JKJDqyDyc6-25">
          <mxGeometry relative="1" as="geometry">
            <Array as="points">
              <mxPoint x="198" y="620" />
              <mxPoint x="414" y="620" />
            </Array>
          </mxGeometry>
        </mxCell>
        <mxCell id="54ExOtCVc-JKJDqyDyc6-14" value="Use neural collaborative filtering to produce recommendations" style="whiteSpace=wrap;html=1;shadow=0;strokeWidth=1;spacing=6;spacingTop=-4;" vertex="1" parent="WIyWlLk6GJQsqaUBKTNV-1">
          <mxGeometry x="138" y="470" width="120" height="60" as="geometry" />
        </mxCell>
        <mxCell id="54ExOtCVc-JKJDqyDyc6-27" style="edgeStyle=orthogonalEdgeStyle;rounded=0;orthogonalLoop=1;jettySize=auto;html=1;entryX=0.5;entryY=0;entryDx=0;entryDy=0;" edge="1" parent="WIyWlLk6GJQsqaUBKTNV-1" source="54ExOtCVc-JKJDqyDyc6-21" target="54ExOtCVc-JKJDqyDyc6-25">
          <mxGeometry relative="1" as="geometry" />
        </mxCell>
        <mxCell id="54ExOtCVc-JKJDqyDyc6-21" value="Use meilisearch full-text search on description to produce recommendations" style="whiteSpace=wrap;html=1;shadow=0;strokeWidth=1;spacing=6;spacingTop=-4;" vertex="1" parent="WIyWlLk6GJQsqaUBKTNV-1">
          <mxGeometry x="354" y="490" width="120" height="80" as="geometry" />
        </mxCell>
        <mxCell id="54ExOtCVc-JKJDqyDyc6-28" style="edgeStyle=orthogonalEdgeStyle;rounded=0;orthogonalLoop=1;jettySize=auto;html=1;entryX=0.5;entryY=0;entryDx=0;entryDy=0;" edge="1" parent="WIyWlLk6GJQsqaUBKTNV-1" source="54ExOtCVc-JKJDqyDyc6-23" target="54ExOtCVc-JKJDqyDyc6-25">
          <mxGeometry relative="1" as="geometry">
            <Array as="points">
              <mxPoint x="630" y="620" />
              <mxPoint x="414" y="620" />
            </Array>
          </mxGeometry>
        </mxCell>
        <mxCell id="54ExOtCVc-JKJDqyDyc6-23" value="Use neural collaborative filtering to produce recommendations" style="whiteSpace=wrap;html=1;shadow=0;strokeWidth=1;spacing=6;spacingTop=-4;" vertex="1" parent="WIyWlLk6GJQsqaUBKTNV-1">
          <mxGeometry x="570" y="310" width="120" height="60" as="geometry" />
        </mxCell>
        <mxCell id="54ExOtCVc-JKJDqyDyc6-25" value="Return recommendations" style="rounded=0;whiteSpace=wrap;html=1;" vertex="1" parent="WIyWlLk6GJQsqaUBKTNV-1">
          <mxGeometry x="354" y="700" width="120" height="60" as="geometry" />
        </mxCell>
      </root>
    </mxGraphModel>
  </diagram>
</mxfile>
